<svg id="Layer_1" data-name="Layer 1" xmlns="http://www.w3.org/2000/svg" viewBox="0 0 215.95 59"><defs><style>.cls-1{fill:#fff;stroke:#231f20;}.cls-1,.cls-6{stroke-miterlimit:10;}.cls-2{fill:#00a651;}.cls-3{fill:#ed1c24;}.cls-4,.cls-6{fill:#2e3192;}.cls-5{fill:#f15a29;}.cls-6{stroke:#2e3192;}</style></defs><path class="cls-1" d="M26.65,117" transform="translate(-13.77 -57.96)"/><path class="cls-1" d="M27.15,127.19" transform="translate(-13.77 -57.96)"/><path class="cls-2" d="M28.52,58a6,6,0,0,1,4.19,1.57,5,5,0,0,1,1.74,3.88V77.7a5,5,0,0,1-1.74,3.78,5.94,5.94,0,0,1-4.19,1.62H25.58v2.8a4.84,4.84,0,0,1-1.76,3.79,6.14,6.14,0,0,1-4.17,1.55,6.07,6.07,0,0,1-4.12-1.55,4.88,4.88,0,0,1-1.76-3.8V63.41a5,5,0,0,1,1.76-3.88A6,6,0,0,1,19.65,58h8.87Zm-8.87.93a5,5,0,0,0-3.46,1.32,4.28,4.28,0,0,0-1.44,3.29,4,4,0,0,0,1.44,3.11,5,5,0,0,0,3.46,1.3h8.87a5.18,5.18,0,0,0,3.53-1.3,4,4,0,0,0,1.47-3.11,4.25,4.25,0,0,0-1.47-3.29,5.11,5.11,0,0,0-3.53-1.32H19.65Zm13.87,7.36A6,6,0,0,1,31.39,68a6.25,6.25,0,0,1-2.87.66H19.65A5.93,5.93,0,0,1,16.83,68a6.06,6.06,0,0,1-2.08-1.78V85.91a4.16,4.16,0,0,0,1.44,3.18,5,5,0,0,0,3.46,1.33,5,5,0,0,0,3.53-1.33,4.18,4.18,0,0,0,1.42-3.18V82.67c0-.26.15-.39.44-.39h3.48a5,5,0,0,0,3.53-1.35,4.22,4.22,0,0,0,1.47-3.21V66.25Zm-13.86.63a3.78,3.78,0,0,1-2.68-1,3.18,3.18,0,0,1-1.1-2.4,3.29,3.29,0,0,1,1.1-2.6,3.92,3.92,0,0,1,2.68-1h8.9a4.06,4.06,0,0,1,2.75,1,3.28,3.28,0,0,1,1.13,2.6,3.18,3.18,0,0,1-1.13,2.4,3.91,3.91,0,0,1-2.75,1Zm0-6.13a3,3,0,0,0-2.08.77,2.47,2.47,0,0,0-.86,1.95,2.38,2.38,0,0,0,.86,1.86,3,3,0,0,0,2.08.76h8.87a3.07,3.07,0,0,0,2.13-.76,2.41,2.41,0,0,0,.86-1.86,2.5,2.5,0,0,0-.86-1.95,3.08,3.08,0,0,0-2.13-.77Zm0,4.27c-1.21,0-1.81-.53-1.81-1.57a1.58,1.58,0,0,1,1.81-1.77h8.87q1.86,0,1.86,1.77c0,1-.62,1.57-1.86,1.57Zm0-2.46a1.15,1.15,0,0,0-.68.16c-.14.1-.2.35-.2.75s.29.81.88.81h8.92a1,1,0,0,0,.71-.18.85.85,0,0,0,.17-.63c0-.4,0-.65-.17-.75a1.13,1.13,0,0,0-.71-.16Zm10.93,7.36c.29,0,.44.13.44.39v7.4a.39.39,0,0,1-.44.44H25a.39.39,0,0,1-.44-.44v-7.4c0-.26.15-.39.44-.39Zm-.44,1.17V70.7H25.58v.39Zm0,2.45V72H25.58v1.56Zm-4.51.94v1h4.51v-1Zm0,2.74h4.51v-.88H25.58Z" transform="translate(-13.77 -57.96)"/><path class="cls-3" d="M62.83,58.5a5.43,5.43,0,0,1,5.39,5.39V73.4a5,5,0,0,1-.59,2.45,5.82,5.82,0,0,1,.59,2.5V86a5.18,5.18,0,0,1-1.59,3.83,5.31,5.31,0,0,1-3.85,1.56h-6a5.32,5.32,0,0,1-3.85-1.56A5.18,5.18,0,0,1,51.31,86V83.79H47.05V86a5.18,5.18,0,0,1-1.59,3.83,5.44,5.44,0,0,1-4,1.56,5.31,5.31,0,0,1-3.85-1.56A5.18,5.18,0,0,1,36.07,86V63.89a5.19,5.19,0,0,1,1.59-3.8,5.25,5.25,0,0,1,3.85-1.59H62.83Zm0,10A4.48,4.48,0,0,0,66,67.15a4.43,4.43,0,0,0,1.37-3.26A4.37,4.37,0,0,0,66,60.68a4.42,4.42,0,0,0-3.19-1.35H41.51a4.43,4.43,0,0,0-3.26,1.35,4.38,4.38,0,0,0-1.35,3.21,4.61,4.61,0,0,0,4.61,4.61H62.78Zm4.61-1.68a5.38,5.38,0,0,1-2,1.87,5.44,5.44,0,0,1-2.65.64H41.51a5.5,5.5,0,0,1-2.6-.64,5.22,5.22,0,0,1-2-1.87V86a4.61,4.61,0,0,0,4.61,4.61,4.56,4.56,0,0,0,3.36-1.35A4.42,4.42,0,0,0,46.21,86V83.4c0-.27.15-.4.45-.4h5a.35.35,0,0,1,.4.4V86a4.37,4.37,0,0,0,1.37,3.26,4.51,4.51,0,0,0,3.28,1.35h6A4.48,4.48,0,0,0,66,89.3,4.41,4.41,0,0,0,67.39,86V81.29a5.83,5.83,0,0,1-2,1.84,5.34,5.34,0,0,1-2.65.66h-6a2.85,2.85,0,0,1-2.08-.86,2.73,2.73,0,0,1-.86-2,2.83,2.83,0,0,1,.39-1.51,3.28,3.28,0,0,1,1.08-1.08s0,0,0,0,0,0,.05,0A3.24,3.24,0,0,1,56.75,78h6A4.48,4.48,0,0,0,66,76.61a4.37,4.37,0,0,0,1.37-3.22Zm-4.56-6.51a3.38,3.38,0,0,1,2.48,1.06,3.57,3.57,0,0,1,0,5.06,3.51,3.51,0,0,1-2.53,1H41.51A3.57,3.57,0,0,1,39,61.37a3.38,3.38,0,0,1,2.48-1.06Zm0,6.23a2.77,2.77,0,0,0,1.94-.76,2.5,2.5,0,0,0,.81-1.92A2.56,2.56,0,0,0,64.72,62a2.62,2.62,0,0,0-1.89-.8H41.51a2.62,2.62,0,0,0-1.89.8,2.56,2.56,0,0,0-.81,1.87,2.5,2.5,0,0,0,.81,1.92,2.7,2.7,0,0,0,1.89.76H62.78Zm0-4.32a1.46,1.46,0,0,1,1.62,1.67,1.5,1.5,0,0,1-1.67,1.71H41.51a1.5,1.5,0,0,1-1.67-1.71,1.48,1.48,0,0,1,1.67-1.67Zm0,2.45a1.23,1.23,0,0,0,.66-.12c.12-.07.17-.3.17-.69a.68.68,0,0,0-.78-.76H41.51c-.56,0-.83.26-.83.76s0,.62.17.69a1.23,1.23,0,0,0,.66.12H62.78ZM51.7,70.51c.27,0,.4.14.4.43V78.3c0,.36-.13.54-.4.54H42.49c-.33,0-.49-.18-.49-.54V70.94c0-.29.16-.43.49-.43Zm-.39,1.22v-.44H42.83v.44Zm0,2.45V72.61H42.83v1.57Zm-8.48.88v1h8.48v-1Zm0,2.9h8.48V77H42.83Zm24.56.35A3.85,3.85,0,0,0,67,76.68a1.06,1.06,0,0,1-.3.47l-.39.37a4.83,4.83,0,0,1,0,.79,3.57,3.57,0,0,1-3.58,3.62h-6a3.35,3.35,0,0,1-2.06-.64A2.2,2.2,0,0,0,56.75,83h6A4.44,4.44,0,0,0,66,81.62,4.54,4.54,0,0,0,67.39,78.31ZM55.33,79.38a3.28,3.28,0,0,0-.54.83,2.58,2.58,0,0,0,2,.78h6a2.73,2.73,0,0,0,1.94-.76,2.46,2.46,0,0,0,.81-1.88.54.54,0,0,0-.1-.25,3.56,3.56,0,0,1-1,.44,1.47,1.47,0,0,1-1.67,1.52h-6A1.73,1.73,0,0,1,55.33,79.38Zm1.42-.54a2.76,2.76,0,0,0-.63,0,.85.85,0,0,0,.63.24h6c.46,0,.7-.13.74-.39a1.44,1.44,0,0,0-.37.05,1.5,1.5,0,0,1-.37,0Z" transform="translate(-13.77 -57.96)"/><path class="cls-4" d="M91.31,58.55a6.15,6.15,0,0,1,4.38,1.74,5.54,5.54,0,0,1,1.84,4.19V85.65a5.65,5.65,0,0,1-1.84,4.19,6.07,6.07,0,0,1-4.38,1.79H75.57A5.17,5.17,0,0,1,73,91a6.45,6.45,0,0,1-2-1.69A7.79,7.79,0,0,1,69.81,87a9,9,0,0,1-.41-2.67V64.48a5.58,5.58,0,0,1,1.81-4.19,6.07,6.07,0,0,1,4.36-1.74H91.31Zm0,10.88A5.21,5.21,0,0,0,95,68a4.61,4.61,0,0,0,1.54-3.5A4.69,4.69,0,0,0,95,61a5.19,5.19,0,0,0-3.7-1.47H75.57A5.14,5.14,0,0,0,71.85,61a4.7,4.7,0,0,0-1.52,3.53A4.62,4.62,0,0,0,71.85,68a5.16,5.16,0,0,0,3.72,1.45H91.31Zm5.24-1.82a6.7,6.7,0,0,1-2.23,2,6.09,6.09,0,0,1-3,.76H75.57a6.09,6.09,0,0,1-3-.76,6.7,6.7,0,0,1-2.23-2v16.7a7.77,7.77,0,0,0,.32,2.14,7.2,7.2,0,0,0,.93,2.09,4.8,4.8,0,0,0,4,2.11H91.31A5.32,5.32,0,0,0,95,89.23a4.62,4.62,0,0,0,1.54-3.54V67.61Zm-5.24-7a4.06,4.06,0,0,1,2.87,1.13,3.66,3.66,0,0,1,1.19,2.75,3.75,3.75,0,0,1-1.19,2.74,3.94,3.94,0,0,1-2.87,1.18H75.61a3.88,3.88,0,0,1-2.88-1.18,3.77,3.77,0,0,1-1.18-2.74,3.68,3.68,0,0,1,1.18-2.75,4,4,0,0,1,2.88-1.13Zm0,6.82a3.1,3.1,0,0,0,2.23-.82,2.76,2.76,0,0,0,.85-2.1,3,3,0,0,0-3.08-3H75.57a2.87,2.87,0,0,0-2.15.89,2.9,2.9,0,0,0-.89,2.12,2.72,2.72,0,0,0,.89,2.1,3,3,0,0,0,2.15.82H91.31Zm0-4.81c1.3,0,2,.63,2,1.87s-.66,1.76-2,1.76H75.57c-1.3,0-2-.59-2-1.76s.66-1.87,2-1.87Zm0,2.7c.65,0,1-.28,1-.83s-.33-.93-1-.93H75.52a1.12,1.12,0,0,0-.76.17,1.15,1.15,0,0,0-.17.76,1,1,0,0,0,.17.66,1.19,1.19,0,0,0,.76.17H91.26Zm-8.53,7.06c.36,0,.54.14.54.44V87.12c0,.33-.18.49-.54.49H77.09a.43.43,0,0,1-.49-.49V72.81c0-.3.16-.44.49-.44Zm-.44,1H77.58v2.5h4.71Zm0,4.46V76.63H77.58v1.18Zm0,2.06V78.79H77.58v1.08Zm0,2.74V80.85H77.58v1.76Zm0,1H77.58v1.08h4.71V83.59Zm-4.71,3.09h4.71V85.55H77.58Z" transform="translate(-13.77 -57.96)"/><path class="cls-5" d="M115.62,58.3a5.88,5.88,0,0,1,4,1.5,4.61,4.61,0,0,1,1.69,3.6v3.18a4.89,4.89,0,0,1-1.52,3.58,4.39,4.39,0,0,1,1.52,3.48V78.3a4.63,4.63,0,0,1-1.69,3.63,6,6,0,0,1-4,1.47h-5.15V86a4.67,4.67,0,0,1-1.69,3.65,6,6,0,0,1-4.14,1.5,5.9,5.9,0,0,1-4-1.5A4.7,4.7,0,0,1,98.9,86V63.4a4.64,4.64,0,0,1,1.69-3.6,5.9,5.9,0,0,1,4-1.5Zm0,9.41a5,5,0,0,0,3.43-1.27,4,4,0,0,0,0-6.11,5,5,0,0,0-3.43-1.25h-11a5,5,0,0,0-3.43,1.25,4,4,0,0,0,0,6.11,4.94,4.94,0,0,0,3.43,1.27Zm4.85-1.57a5.32,5.32,0,0,1-2,1.69,6.35,6.35,0,0,1-2.82.62h-11a6.38,6.38,0,0,1-2.77-.62,5.19,5.19,0,0,1-2.08-1.69V86a4,4,0,0,0,1.42,3.09,4.94,4.94,0,0,0,3.43,1.27,5.1,5.1,0,0,0,3.5-1.27A4,4,0,0,0,109.59,86V83c0-.26.15-.39.44-.39h5.59a5,5,0,0,0,3.43-1.25,3.9,3.9,0,0,0,1.42-3.06v-2a5.4,5.4,0,0,1-2,1.76,6.1,6.1,0,0,1-2.82.64H105.08a.39.39,0,0,1-.44-.44v-7c0-.23.14-.34.44-.34h10.54a5,5,0,0,0,3.43-1.28,4,4,0,0,0,1.42-3.09Zm-4.85-6.07a3.94,3.94,0,0,1,2.67,1,3.09,3.09,0,0,1,0,4.73,3.91,3.91,0,0,1-2.67,1h-11a3.88,3.88,0,0,1-2.67-1A3.07,3.07,0,0,1,102,61a3.9,3.9,0,0,1,2.67-1Zm0,5.88a3,3,0,0,0,2-.74,2.3,2.3,0,0,0,.86-1.81,2.23,2.23,0,0,0-.86-1.79,3.1,3.1,0,0,0-2-.71h-11a3.11,3.11,0,0,0-2,.71,2.22,2.22,0,0,0-.85,1.79,2.29,2.29,0,0,0,.85,1.81,3,3,0,0,0,2,.74Zm0-4.17c1.17,0,1.76.54,1.76,1.62S116.79,65,115.62,65h-11c-1.18,0-1.77-.53-1.77-1.57s.59-1.62,1.77-1.62Zm0,2.35c.58,0,.88-.24.88-.73,0-.33-.06-.53-.17-.61a1.3,1.3,0,0,0-.71-.13h-11a1.15,1.15,0,0,0-.69.13c-.1.08-.15.28-.15.61,0,.49.28.73.84.73Zm4.82,9.51a3.79,3.79,0,0,0-1.37-3,5.32,5.32,0,0,1-1,.54,2.78,2.78,0,0,1,1.17,3.29A3.11,3.11,0,0,1,118,76.26a4.06,4.06,0,0,1-2.33.67H105.52v1h10.11a5.07,5.07,0,0,0,3.44-1.23A3.85,3.85,0,0,0,120.49,73.64Zm-15-2v.39h10.1c1.17,0,1.76.53,1.76,1.57s-.59,1.57-1.76,1.57h-10.1v.93h10.1a2.73,2.73,0,0,0,1.93-.61,3,3,0,0,0,.86-1.25,3,3,0,0,0-.07-1.45,2.27,2.27,0,0,0-1.15-1.34,6.92,6.92,0,0,1-1.57.19Zm0,1.18v1.57h10.14c.59,0,.89-.26.89-.79s-.3-.78-.89-.78H105.52Z" transform="translate(-13.77 -57.96)"/><path class="cls-2" d="M129.58,58.5A6.21,6.21,0,0,1,134,60.26a5.72,5.72,0,0,1,1.91,4.36V85.31A5.54,5.54,0,0,1,134,89.52a6.22,6.22,0,0,1-4.42,1.77,6,6,0,0,1-4.31-1.77,5.6,5.6,0,0,1-1.86-4.21V64.62a5.78,5.78,0,0,1,1.86-4.36A6,6,0,0,1,129.58,58.5Zm0,11.22a5.62,5.62,0,0,0,2.11-.39,5,5,0,0,0,1.69-1.1,5.38,5.38,0,0,0,1.13-1.65,4.7,4.7,0,0,0,.42-2,5.13,5.13,0,0,0-1.52-3.77,5.22,5.22,0,0,0-3.83-1.52,5.06,5.06,0,0,0-3.72,1.52,5.13,5.13,0,0,0-1.57,3.77,5,5,0,0,0,1.57,3.63A5.14,5.14,0,0,0,129.58,69.72Zm5.35-2.11a6.29,6.29,0,0,1-2.26,2.21,6.12,6.12,0,0,1-3.09.78,6,6,0,0,1-3-.78,6.73,6.73,0,0,1-2.3-2.21v17.7a4.83,4.83,0,0,0,.42,2A5.07,5.07,0,0,0,125.86,89a5.31,5.31,0,0,0,3.72,1.49A5.23,5.23,0,0,0,133.41,89a4.94,4.94,0,0,0,1.52-3.65Zm-5.37-7a4,4,0,0,1,2.92,1.15,3.82,3.82,0,0,1,1.17,2.85,3.59,3.59,0,0,1-1.17,2.68,4.08,4.08,0,0,1-2.92,1.12,3.71,3.71,0,0,1-1.53-.32,4.57,4.57,0,0,1-1.27-.83,3.65,3.65,0,0,1-.88-1.19,3.45,3.45,0,0,1-.31-1.46,3.76,3.76,0,0,1,1.19-2.85A3.92,3.92,0,0,1,129.56,60.65Zm0,7a3.12,3.12,0,0,0,2.31-.88,3.24,3.24,0,0,0,0-4.44,3.33,3.33,0,0,0-2.31-.8,3.28,3.28,0,0,0-2.2.8,3.11,3.11,0,0,0,0,4.44A3.07,3.07,0,0,0,129.58,67.66Zm0-5a1.72,1.72,0,0,1,1.92,2q0,1.77-1.92,1.77t-1.86-1.77C127.72,63.32,128.34,62.66,129.58,62.66Zm0,2.85c.69,0,1-.3,1-.89s-.05-.74-.17-.85-.4-.18-.86-.18a1.23,1.23,0,0,0-.76.18c-.14.11-.22.4-.22.85S128.93,65.51,129.58,65.51Z" transform="translate(-13.77 -57.96)"/><path class="cls-3" d="M156.44,58.25a5.47,5.47,0,0,1,4,1.64,5.31,5.31,0,0,1,1.67,3.9v8.43a5.36,5.36,0,0,1-1.67,4,5.47,5.47,0,0,1-4,1.64h-1.17v8.13a5.29,5.29,0,0,1-1.69,4,5.84,5.84,0,0,1-8.07,0,5.24,5.24,0,0,1-1.71-4V77.81h-.93a5.47,5.47,0,0,1-4-1.64,5.36,5.36,0,0,1-1.67-4V63.79a5.31,5.31,0,0,1,1.67-3.9,5.47,5.47,0,0,1,4-1.64Zm0,10.25a4.61,4.61,0,0,0,3.36-1.38,4.49,4.49,0,0,0,1.4-3.33,4.44,4.44,0,0,0-1.4-3.28,4.61,4.61,0,0,0-3.36-1.38H142.87a4.71,4.71,0,0,0-3.39,1.38,4.42,4.42,0,0,0-1.42,3.28,4.47,4.47,0,0,0,1.42,3.33,4.71,4.71,0,0,0,3.39,1.38Zm4.76-1.66a5.92,5.92,0,0,1-2.06,1.81,5.68,5.68,0,0,1-2.69.68H142.88a5.63,5.63,0,0,1-2.75-.68,6.47,6.47,0,0,1-2-1.81v5.39a4.37,4.37,0,0,0,1.42,3.31,4.74,4.74,0,0,0,3.38,1.35h1.47c.26,0,.39.16.39.49V86a4.4,4.4,0,0,0,1.39,3.33,5,5,0,0,0,6.79,0A4.36,4.36,0,0,0,154.34,86V77.38c0-.33.15-.49.44-.49h1.67a4.65,4.65,0,0,0,3.35-1.35,4.43,4.43,0,0,0,1.4-3.31V66.84Zm-4.75-6.73A3.57,3.57,0,0,1,159,61.17a3.52,3.52,0,0,1,1.08,2.6,3.7,3.7,0,0,1-3.67,3.7H142.91a3.7,3.7,0,0,1-2.6-6.3,3.61,3.61,0,0,1,2.6-1.06Zm0,6.43a2.78,2.78,0,0,0,2-.78,2.58,2.58,0,0,0,.83-2,2.67,2.67,0,0,0-.83-1.94,2.7,2.7,0,0,0-2-.82H142.91a2.76,2.76,0,0,0-2,.82,2.67,2.67,0,0,0-.83,1.94,2.58,2.58,0,0,0,.83,2,2.85,2.85,0,0,0,2,.78Zm0-4.47a1.74,1.74,0,0,1,0,3.48H142.87a1.74,1.74,0,1,1,0-3.48Zm0,2.6a1.14,1.14,0,0,0,.68-.15c.13-.1.2-.33.2-.7a.79.79,0,0,0-.88-.91H143c-.59,0-.88.3-.88.91,0,.37.07.6.2.7a1.14,1.14,0,0,0,.68.15Z" transform="translate(-13.77 -57.96)"/><path class="cls-4" d="M173.24,58.35a6.38,6.38,0,0,1,4,1.27,3.79,3.79,0,0,1,1.67,3.09v3a4,4,0,0,1-1.67,3.14,3.72,3.72,0,0,1,1.67,3V76a3.91,3.91,0,0,1-1.67,3,3.71,3.71,0,0,1,1.67,3.09v4a4.9,4.9,0,0,1-.42,2,5.57,5.57,0,0,1-1.13,1.69A6.57,6.57,0,0,1,175.62,91a5.22,5.22,0,0,1-2.38.51h-4a6,6,0,0,1-3.83-1.32,3.85,3.85,0,0,1-1.67-3.09V62.71a3.77,3.77,0,0,1,1.67-3.09,6.13,6.13,0,0,1,3.83-1.27Zm0,8.09a5.28,5.28,0,0,0,3.33-1.06,3.24,3.24,0,0,0,1.37-2.67,3.3,3.3,0,0,0-1.37-2.62,5.14,5.14,0,0,0-3.33-1.1h-4a4.93,4.93,0,0,0-3.26,1.1,3.3,3.3,0,0,0-1.35,2.62A3.24,3.24,0,0,0,166,65.38a5.07,5.07,0,0,0,3.26,1.06Zm4.73-1.38a5.07,5.07,0,0,1-2,1.52,6.62,6.62,0,0,1-2.73.54h-4a6.28,6.28,0,0,1-2.65-.54,5.18,5.18,0,0,1-2-1.52v22a3.24,3.24,0,0,0,1.35,2.6,5.07,5.07,0,0,0,3.27,1.08h4a4.48,4.48,0,0,0,2.14-.47,5,5,0,0,0,1.44-1.15,4.27,4.27,0,0,0,.86-1.52,5.08,5.08,0,0,0,.27-1.57V83.89a6.5,6.5,0,0,1-1.88,1.81,5.11,5.11,0,0,1-2.81.73h-3.82c-.29,0-.44-.13-.44-.39V80c0-.26.15-.39.44-.39h3.82a5.15,5.15,0,0,0,3.32-1.1A3.22,3.22,0,0,0,177.94,76V74.18a5.43,5.43,0,0,1-2,1.55,6.37,6.37,0,0,1-2.71.56h-3.82c-.29,0-.44-.12-.44-.34v-6c0-.23.15-.35.44-.35h3.82a5.05,5.05,0,0,0,3.32-1.12,3.42,3.42,0,0,0,1.37-2.75Zm-4.72-5.24a4.12,4.12,0,0,1,2.64.86,2.55,2.55,0,0,1,1.07,2,2.49,2.49,0,0,1-1.07,2.11,4.39,4.39,0,0,1-2.64.78h-3.95a4.08,4.08,0,0,1-2.51-.78,2.5,2.5,0,0,1-1-2.11,2.55,2.55,0,0,1,1-2,3.84,3.84,0,0,1,2.51-.86Zm0,5.05a3.45,3.45,0,0,0,2.05-.56,1.86,1.86,0,0,0,.78-1.6,2,2,0,0,0-.78-1.54,3.06,3.06,0,0,0-2.05-.66h-3.95a2.89,2.89,0,0,0-1.85.66,1.91,1.91,0,0,0-.83,1.54,1.81,1.81,0,0,0,.83,1.6,3.25,3.25,0,0,0,1.85.56Zm0-3.48c1.21,0,1.82.44,1.82,1.32s-.61,1.47-1.82,1.47h-4c-1.11,0-1.66-.49-1.66-1.47s.55-1.32,1.66-1.32Zm0,2.06a1.15,1.15,0,0,0,.69-.13c.1-.08.15-.28.15-.61s-.05-.42-.15-.49a1.58,1.58,0,0,0-.69-.1h-4c-.52,0-.78.2-.78.59s.06.53.17.61a1,1,0,0,0,.61.13Zm4.68,8.4a2.91,2.91,0,0,0-.29-1.41,4.11,4.11,0,0,0-1-1.11,3.54,3.54,0,0,1-.88.44,2.62,2.62,0,0,1,1,1.23,2.1,2.1,0,0,1,0,1.56,2.92,2.92,0,0,1-1.25,1.57,4.13,4.13,0,0,1-2.28.59h-3.4v.93h3.4a5.15,5.15,0,0,0,3.34-1.11A3.37,3.37,0,0,0,177.93,71.85Zm-8.11-1.64.05.3h3.38c1.21,0,1.82.44,1.82,1.32s-.61,1.37-1.83,1.37h-3.42v.88h3.39a2.89,2.89,0,0,0,1.93-.56,2.06,2.06,0,0,0,.76-1.1,1.87,1.87,0,0,0,0-1.28,1.91,1.91,0,0,0-1.21-1.08,7,7,0,0,1-1.51.15Zm0,.93v1.37h3.42c.37,0,.6-.05.7-.17a.74.74,0,0,0,.15-.51.76.76,0,0,0-.15-.54,1.07,1.07,0,0,0-.7-.15h-3.42Zm8.06,10.34a3,3,0,0,0-1.27-2,7.3,7.3,0,0,1-.88.49,2.21,2.21,0,0,1,1,2.79,3.05,3.05,0,0,1-1.25,1.54,4,4,0,0,1-2.28.62h-3.4v.83h3.4a4.23,4.23,0,0,0,3.26-1.35A4.86,4.86,0,0,0,177.88,81.48Zm-8.06-1.12v.34h3.42c1.22,0,1.83.47,1.83,1.4s-.61,1.2-1.83,1.2h-3.42v.88h3.39a2.94,2.94,0,0,0,1.93-.56,2,2,0,0,0,.76-1,1.65,1.65,0,0,0,0-1.21,2,2,0,0,0-1.21-1.16,7,7,0,0,1-1.51.15Zm0,1v1.32h3.42a1.07,1.07,0,0,0,.7-.15.57.57,0,0,0,.15-.44.83.83,0,0,0-.15-.56c-.1-.12-.33-.17-.7-.17h-3.42Z" transform="translate(-13.77 -57.96)"/><path class="cls-5" d="M190.19,58.35a6.39,6.39,0,0,1,4,1.27,3.79,3.79,0,0,1,1.67,3.09v3a4,4,0,0,1-1.67,3.14,3.72,3.72,0,0,1,1.67,3V76a3.91,3.91,0,0,1-1.67,3,3.71,3.71,0,0,1,1.67,3.09v4a4.9,4.9,0,0,1-.42,2,5.75,5.75,0,0,1-1.13,1.69A6.74,6.74,0,0,1,192.58,91a5.23,5.23,0,0,1-2.39.51h-4a6,6,0,0,1-3.83-1.32,3.86,3.86,0,0,1-1.68-3.09V62.71a3.78,3.78,0,0,1,1.68-3.09,6.13,6.13,0,0,1,3.83-1.27Zm0,8.09a5.29,5.29,0,0,0,3.34-1.06,3.24,3.24,0,0,0,1.37-2.67,3.3,3.3,0,0,0-1.37-2.62,5.15,5.15,0,0,0-3.34-1.1h-4a5,5,0,0,0-3.26,1.1,3.32,3.32,0,0,0-1.34,2.62,3.26,3.26,0,0,0,1.34,2.67,5.1,5.1,0,0,0,3.26,1.06Zm4.74-1.38a5,5,0,0,1-2,1.52,6.57,6.57,0,0,1-2.72.54h-4a6.31,6.31,0,0,1-2.65-.54,5.15,5.15,0,0,1-2-1.52v22a3.24,3.24,0,0,0,1.35,2.6,5.06,5.06,0,0,0,3.26,1.08h4a4.42,4.42,0,0,0,2.13-.47,4.89,4.89,0,0,0,1.45-1.15,4.27,4.27,0,0,0,.86-1.52A5.08,5.08,0,0,0,194.9,86V83.89A6.63,6.63,0,0,1,193,85.7a5.13,5.13,0,0,1-2.81.73h-3.82c-.3,0-.44-.13-.44-.39V80c0-.26.14-.39.44-.39h3.82a5.15,5.15,0,0,0,3.32-1.1A3.25,3.25,0,0,0,194.9,76V74.18a5.43,5.43,0,0,1-2,1.55,6.37,6.37,0,0,1-2.71.56h-3.82c-.3,0-.44-.12-.44-.34v-6c0-.23.14-.35.44-.35h3.82a5.05,5.05,0,0,0,3.32-1.12,3.45,3.45,0,0,0,1.37-2.75Zm-4.72-5.24a4.08,4.08,0,0,1,2.63.86,2.53,2.53,0,0,1,1.08,2,2.48,2.48,0,0,1-1.08,2.11,4.34,4.34,0,0,1-2.63.78h-4a4.11,4.11,0,0,1-2.52-.78,2.5,2.5,0,0,1-1.05-2.11,2.55,2.55,0,0,1,1.05-2,3.87,3.87,0,0,1,2.52-.86Zm0,5.05a3.48,3.48,0,0,0,2-.56,1.86,1.86,0,0,0,.78-1.6,2,2,0,0,0-.78-1.54,3.08,3.08,0,0,0-2-.66h-4a2.89,2.89,0,0,0-1.85.66,1.91,1.91,0,0,0-.83,1.54,1.81,1.81,0,0,0,.83,1.6,3.25,3.25,0,0,0,1.85.56Zm0-3.48c1.21,0,1.82.44,1.82,1.32s-.61,1.47-1.82,1.47h-4c-1.11,0-1.66-.49-1.66-1.47s.55-1.32,1.66-1.32Zm0,2.06a1.15,1.15,0,0,0,.69-.13c.1-.08.15-.28.15-.61s-.05-.42-.15-.49a1.58,1.58,0,0,0-.69-.1h-4c-.52,0-.78.2-.78.59s0,.53.17.61a1,1,0,0,0,.61.13Zm4.68,8.4a2.91,2.91,0,0,0-.29-1.41,4.11,4.11,0,0,0-1-1.11,3.41,3.41,0,0,1-.89.44,2.64,2.64,0,0,1,1,1.23,2.1,2.1,0,0,1,0,1.56,3,3,0,0,1-1.25,1.57,4.13,4.13,0,0,1-2.28.59h-3.4v.93h3.4a5.15,5.15,0,0,0,3.34-1.11A3.37,3.37,0,0,0,194.89,71.85Zm-8.11-1.64.05.3h3.38c1.21,0,1.82.44,1.82,1.32s-.61,1.37-1.83,1.37h-3.42v.88h3.38a2.9,2.9,0,0,0,1.94-.56,2.06,2.06,0,0,0,.76-1.1,1.81,1.81,0,0,0,0-1.28,1.87,1.87,0,0,0-1.2-1.08,7.12,7.12,0,0,1-1.52.15Zm0,.93v1.37h3.42c.37,0,.6-.05.7-.17a.74.74,0,0,0,.15-.51.76.76,0,0,0-.15-.54,1.07,1.07,0,0,0-.7-.15h-3.42Zm8.06,10.34a3,3,0,0,0-1.27-2,6.62,6.62,0,0,1-.89.49,2.21,2.21,0,0,1,1,2.79,3.1,3.1,0,0,1-1.25,1.54,4,4,0,0,1-2.28.62h-3.4v.83h3.4a4.23,4.23,0,0,0,3.26-1.35A4.86,4.86,0,0,0,194.84,81.48Zm-8.06-1.12v.34h3.42c1.22,0,1.83.47,1.83,1.4s-.61,1.2-1.83,1.2h-3.42v.88h3.38a3,3,0,0,0,1.94-.56,2,2,0,0,0,.76-1,1.6,1.6,0,0,0,0-1.21,1.94,1.94,0,0,0-1.2-1.16,7.12,7.12,0,0,1-1.52.15Zm0,1v1.32h3.42a1.07,1.07,0,0,0,.7-.15.57.57,0,0,0,.15-.44.83.83,0,0,0-.15-.56c-.1-.12-.33-.17-.7-.17h-3.42Z" transform="translate(-13.77 -57.96)"/><path class="cls-2" d="M224.33,58.5a5.45,5.45,0,0,1,5.39,5.39V73.4a5.07,5.07,0,0,1-.59,2.45,6,6,0,0,1,.59,2.5V86a5.15,5.15,0,0,1-1.6,3.83,5.28,5.28,0,0,1-3.84,1.56h-6a5.31,5.31,0,0,1-3.85-1.56A5.18,5.18,0,0,1,212.81,86V83.79h-4.27V86A5.18,5.18,0,0,1,207,89.87,5.42,5.42,0,0,1,203,91.43a5.28,5.28,0,0,1-3.84-1.56,5.19,5.19,0,0,1-1.6-3.83V63.89A5.45,5.45,0,0,1,203,58.5h21.33Zm-.05,10a4.45,4.45,0,0,0,3.23-1.35,4.39,4.39,0,0,0,1.37-3.26,4.33,4.33,0,0,0-1.37-3.21,4.38,4.38,0,0,0-3.18-1.35H203a4.59,4.59,0,1,0,0,9.17h21.28Zm4.6-1.68a5.31,5.31,0,0,1-2,1.87,5.37,5.37,0,0,1-2.64.64H203a5.46,5.46,0,0,1-2.59-.64,5.22,5.22,0,0,1-2-1.87V86a4.61,4.61,0,0,0,4.6,4.61,4.56,4.56,0,0,0,3.36-1.35A4.43,4.43,0,0,0,207.71,86V83.4c0-.27.15-.4.44-.4h5a.35.35,0,0,1,.39.4V86A4.41,4.41,0,0,0,215,89.3a4.53,4.53,0,0,0,3.29,1.35h6a4.45,4.45,0,0,0,3.23-1.35A4.37,4.37,0,0,0,228.88,86V81.29a5.74,5.74,0,0,1-2,1.84,5.28,5.28,0,0,1-2.64.66h-6a2.83,2.83,0,0,1-2.08-.86,2.69,2.69,0,0,1-.86-2,2.83,2.83,0,0,1,.39-1.51,3.28,3.28,0,0,1,1.08-1.08s.05,0,.05,0,0,0,0,0a3.21,3.21,0,0,1,1.37-.34h6a4.45,4.45,0,0,0,3.23-1.35,4.33,4.33,0,0,0,1.37-3.22Zm-4.55-6.51a3.36,3.36,0,0,1,2.47,1.06,3.57,3.57,0,0,1-2.52,6.1H203a3.42,3.42,0,0,1-2.47-1,3.57,3.57,0,0,1,0-5.06A3.36,3.36,0,0,1,203,60.31Zm-.05,6.23a2.75,2.75,0,0,0,1.93-.76,2.5,2.5,0,0,0,.81-1.92,2.56,2.56,0,0,0-.81-1.87,2.61,2.61,0,0,0-1.88-.8H203a2.61,2.61,0,0,0-1.88.8,2.56,2.56,0,0,0-.81,1.87,2.5,2.5,0,0,0,.81,1.92,2.7,2.7,0,0,0,1.88.76h21.28Zm.05-4.32a1.45,1.45,0,0,1,1.61,1.67,1.49,1.49,0,0,1-1.66,1.71H203a1.49,1.49,0,0,1-1.66-1.71A1.47,1.47,0,0,1,203,62.22Zm-.05,2.45a1.28,1.28,0,0,0,.66-.12c.11-.07.17-.3.17-.69a.68.68,0,0,0-.78-.76H203c-.55,0-.83.26-.83.76s.06.62.17.69a1.28,1.28,0,0,0,.66.12h21.28ZM213.2,70.51c.26,0,.39.14.39.43V78.3q0,.54-.39.54H204c-.33,0-.49-.18-.49-.54V70.94c0-.29.16-.43.49-.43Zm-.39,1.22v-.44h-8.48v.44Zm0,2.45V72.61h-8.48v1.57Zm-8.48.88v1h8.48v-1Zm0,2.9h8.48V77h-8.48Zm24.55.35a3.85,3.85,0,0,0-.39-1.63,1,1,0,0,1-.29.47l-.39.37a4.83,4.83,0,0,1,.05.79,3.59,3.59,0,0,1-3.58,3.62h-6a3.33,3.33,0,0,1-2.06-.64A2.2,2.2,0,0,0,218.25,83h6a4.4,4.4,0,0,0,3.23-1.38A4.5,4.5,0,0,0,228.88,78.31Zm-12,1.07a3.28,3.28,0,0,0-.54.83,2.56,2.56,0,0,0,2,.78h6a2.7,2.7,0,0,0,1.93-.76,2.46,2.46,0,0,0,.81-1.88.45.45,0,0,0-.1-.25,3.42,3.42,0,0,1-1,.44,1.46,1.46,0,0,1-1.66,1.52h-6A1.73,1.73,0,0,1,216.83,79.38Zm1.42-.54a2.85,2.85,0,0,0-.64,0,.88.88,0,0,0,.64.24h6c.45,0,.7-.13.73-.39a1.5,1.5,0,0,0-.37.05,1.36,1.36,0,0,1-.36,0Z" transform="translate(-13.77 -57.96)"/><rect class="cls-6" x="23.13" y="35.04" width="191.98" height="2.74"/><rect class="cls-3" x="56.56" y="41.88" width="158.56" height="2.74"/><rect class="cls-2" x="85.13" y="48.79" width="130.05" height="2.74"/><rect class="cls-5" x="109.64" y="56.26" width="105.55" height="2.74"/></svg>